<svg width="181" height="226" viewBox="0 0 181 226" fill="none" xmlns="http://www.w3.org/2000/svg">
<path d="M83.576 1.98782L44.5975 28.2148C41.4503 30.3324 39.5688 33.8384 39.5688 37.5854V70.1564C39.5688 74.4476 42.0309 78.3724 45.9332 80.3019L84.9016 99.5697C88.1502 101.176 91.979 101.188 95.2376 99.6007L134.904 80.285C138.841 78.3678 141.331 74.4247 141.331 70.1085V37.637C141.331 33.8615 139.421 30.3327 136.235 28.2211L96.5787 1.94249C92.6455 -0.663942 87.4904 -0.64597 83.576 1.98782Z" fill="#6E9647"/>
<path d="M87.3664 46.0864C87.3664 45.25 88.0567 44.5719 88.9082 44.5719H119.745C120.597 44.5719 121.287 45.25 121.287 46.0864V75.6182C121.287 76.4546 120.597 77.1327 119.745 77.1327H88.9082C88.0567 77.1327 87.3664 76.4546 87.3664 75.6182V46.0864Z" fill="#E9E0E0"/>
<path d="M91.992 25.6413C91.992 27.3141 90.6113 28.6702 88.9082 28.6702C87.2052 28.6702 85.8245 27.3141 85.8245 25.6413C85.8245 23.9684 87.2052 22.6124 88.9082 22.6124C90.6113 22.6124 91.992 23.9684 91.992 25.6413Z" fill="#E9E0E0"/>
<path d="M68.8641 43.0575C68.8641 44.7303 67.4835 46.0864 65.7804 46.0864C64.0773 46.0864 62.6967 44.7303 62.6967 43.0575C62.6967 41.3847 64.0773 40.0286 65.7804 40.0286C67.4835 40.0286 68.8641 41.3847 68.8641 43.0575Z" fill="#E9E0E0"/>
<path d="M61.1548 62.3668V55.3977C61.1548 53.7364 61.852 52.1486 63.0822 51.0084L65.7804 48.7367L71.5624 44.1933L82.7408 35.1066L88.5228 31.3205L90.9075 29.879C92.6247 28.8411 94.6013 28.2916 96.6175 28.2916H98.6683C99.8585 28.2916 101.036 28.529 102.13 28.9895C102.821 29.2802 103.471 29.6568 104.064 30.1099L106.64 32.0777C112.598 36.3476 116.536 38.3523 119.447 40.1338C120.523 40.7923 120.178 42.291 118.935 42.5352C118.474 42.6257 118.001 42.4983 117.639 42.2052C113.327 38.72 104.645 34.3494 103.17 34.3494C101.629 34.3494 98.1594 36.9997 97.003 38.1355L96.7679 38.3665C96.1041 39.0184 96.2409 40.1095 97.0458 40.5838C97.27 40.716 97.5266 40.7858 97.7881 40.7858H107.144C107.825 40.7858 108.291 41.4621 108.038 42.0839C107.892 42.4432 107.538 42.6789 107.144 42.6789H93.3303C92.5383 42.6789 92.0232 41.8602 92.3774 41.1644C92.8899 40.1576 93.5093 39.2068 94.2252 38.3278L94.6902 37.7569L98.3376 33.8161C98.471 33.672 98.5449 33.4842 98.5449 33.2895C98.5449 32.838 98.157 32.4801 97.6982 32.5083L93.4065 32.7717C92.7281 32.8134 92.0662 32.995 91.464 33.3049L87.14 35.5296C85.2415 36.5063 83.4647 37.696 81.8451 39.0747L78.5007 41.9216L73.1042 47.2222C72.8639 47.4976 72.657 47.7606 72.4789 48.011C71.0927 49.9608 71.5201 52.6319 71.4395 55.0086L71.2584 60.3435C71.2076 61.8418 71.931 63.2638 73.1813 64.1235C74.346 64.9243 75.0585 66.2172 75.1044 67.6129L75.3895 76.2961C75.4058 76.7924 75.0882 77.2403 74.6086 77.3973C73.8685 77.6397 73.1042 77.0986 73.1042 76.3323V71.1872C73.1042 70.5627 73.0501 69.9394 72.9424 69.3239L72.7942 68.4769C72.7441 68.1906 72.6599 67.911 72.5434 67.644L72.1924 66.8396C71.8102 65.9636 70.9333 65.3957 69.963 65.3957C68.8612 65.3957 67.8977 66.1251 67.6173 67.1718L66.7284 70.4896C66.3644 71.8484 65.5379 73.0438 64.3863 73.8772L59.8231 77.1799C59.2969 77.5607 58.5513 77.414 58.2151 76.8635C57.9165 76.3748 58.0523 75.7426 58.5264 75.4139L62.2459 72.8351C63.5237 71.9491 64.3998 70.6088 64.6881 69.0987L65.3949 65.3957L66.0422 52.8068C66.0426 52.7989 66.0445 52.7911 66.0477 52.7839C66.0762 52.7211 65.9982 52.664 65.945 52.7087L63.7214 54.5809C63.5603 54.7164 63.4676 54.9144 63.4676 55.1228V62.3668C63.4676 62.9941 62.9499 63.5026 62.3112 63.5026C61.6726 63.5026 61.1548 62.9941 61.1548 62.3668Z" fill="#E9E0E0"/>
<path d="M17.7094 205.565V177.872H22.3965V189.912H35.7267V177.872H40.4138V205.565H35.7267V193.524H22.3965V205.565H17.7094ZM45.8446 205.565V177.872H65.1519V181.527H50.5317V189.912H63.5608V193.524H50.5317V201.953H65.1519V205.565H45.8446ZM69.4865 205.565V177.872H74.1736V201.953H88.3638V205.565H69.4865ZM92.0787 205.565V177.872H104.42C106.541 177.872 108.29 178.274 109.666 179.076C111.042 179.879 112.06 180.983 112.719 182.387C113.378 183.763 113.708 185.34 113.708 187.117C113.708 189.869 112.848 192.077 111.128 193.739C109.437 195.402 107.143 196.233 104.248 196.233H96.7657V205.565H92.0787ZM96.7657 192.535H103.388C105.251 192.535 106.656 192.048 107.602 191.073C108.548 190.099 109.021 188.78 109.021 187.117C109.021 185.34 108.562 183.964 107.645 182.989C106.756 182.015 105.409 181.527 103.603 181.527H96.7657V192.535ZM117.442 205.565V177.872H136.75V181.527H122.129V189.912H135.159V193.524H122.129V201.953H136.75V205.565H117.442ZM141.084 205.565V177.872H153.812C156.908 177.872 159.159 178.675 160.563 180.28C161.997 181.857 162.714 184.007 162.714 186.73C162.714 188.68 162.226 190.342 161.252 191.718C160.277 193.094 158.872 194.055 157.037 194.599C157.553 194.972 157.955 195.373 158.241 195.803C158.528 196.233 158.815 196.807 159.101 197.523L162.585 205.565H157.768L154.371 197.824C154.056 197.079 153.669 196.549 153.21 196.233C152.78 195.918 152.035 195.76 150.974 195.76H145.771V205.565H141.084ZM145.771 191.976H152.565C154.257 191.976 155.59 191.561 156.564 190.729C157.539 189.898 158.026 188.565 158.026 186.73C158.026 183.262 156.349 181.527 152.995 181.527H145.771V191.976Z" fill="black"/>
<path d="M11.2621 166.502V138.551H1.10318V131.886H30.0748V138.551H19.9159V166.502H11.2621ZM52.2894 167.039C49.0644 167.039 46.2514 166.52 43.8506 165.48C41.4855 164.441 39.6401 162.9 38.3142 160.858C37.0242 158.815 36.3792 156.307 36.3792 153.333V131.886H45.0331V152.526C45.0331 154.927 45.6602 156.719 46.9144 157.901C48.1685 159.084 49.9602 159.675 52.2894 159.675C54.6186 159.675 56.4103 159.084 57.6645 157.901C58.9187 156.719 59.5458 154.927 59.5458 152.526V131.886H68.1997V153.333C68.1997 156.307 67.5367 158.815 66.2109 160.858C64.9209 162.9 63.0754 164.441 60.6746 165.48C58.3095 166.52 55.5145 167.039 52.2894 167.039ZM84.088 166.502V138.551H73.9292V131.886H102.901V138.551H92.7419V166.502H84.088ZM125.128 167.039C119.502 167.039 115.22 165.606 112.282 162.739C109.343 159.872 107.874 155.411 107.874 149.355C107.874 142.941 109.343 138.336 112.282 135.541C115.22 132.746 119.502 131.349 125.128 131.349C130.754 131.349 135.036 132.746 137.974 135.541C140.913 138.336 142.382 142.941 142.382 149.355C142.382 155.411 140.913 159.872 137.974 162.739C135.036 165.606 130.754 167.039 125.128 167.039ZM125.128 159.675C128.031 159.675 130.145 158.851 131.471 157.203C132.832 155.519 133.513 152.903 133.513 149.355C133.513 145.485 132.832 142.762 131.471 141.185C130.145 139.572 128.031 138.766 125.128 138.766C122.19 138.766 120.04 139.572 118.678 141.185C117.352 142.762 116.689 145.485 116.689 149.355C116.689 152.903 117.352 155.519 118.678 157.203C120.04 158.851 122.19 159.675 125.128 159.675ZM149.483 166.502V131.886H166.79C170.875 131.886 173.885 132.961 175.82 135.111C177.755 137.261 178.723 140.146 178.723 143.765C178.723 146.094 178.132 148.137 176.949 149.893C175.767 151.648 174.154 152.956 172.112 153.816C172.613 154.211 173.007 154.659 173.294 155.16C173.617 155.626 173.957 156.289 174.315 157.149L178.4 166.502H169.37L165.5 157.686C165.178 156.934 164.766 156.396 164.264 156.074C163.762 155.716 163.046 155.536 162.114 155.536H158.136V166.502H149.483ZM158.136 148.871H164.533C166.217 148.871 167.525 148.459 168.457 147.635C169.424 146.775 169.908 145.485 169.908 143.765C169.908 140.289 168.242 138.551 164.909 138.551H158.136V148.871Z" fill="black"/>
</svg>
